<?xml version="1.0" encoding="UTF-8" standalone="no"?>
<!DOCTYPE svg PUBLIC "-//W3C//DTD SVG 1.1//EN" "http://www.w3.org/Graphics/SVG/1.1/DTD/svg11.dtd">
<svg width="100%" height="100%" viewBox="0 0 24 25" version="1.1" xmlns="http://www.w3.org/2000/svg" xmlns:xlink="http://www.w3.org/1999/xlink" xml:space="preserve" xmlns:serif="http://www.serif.com/" style="fill-rule:evenodd;clip-rule:evenodd;">
    <rect id="Artboard1" x="0" y="0" width="24" height="25" style="fill:none;"/>
    <g id="Artboard11" serif:id="Artboard1">
        <path d="M12,3.553C7.866,3.553 4.183,6.86 3.168,10.802C3.031,11.337 2.486,11.659 1.951,11.521C1.416,11.384 1.094,10.838 1.232,10.304C2.437,5.619 6.815,1.553 12,1.553C18.075,1.553 23,6.478 23,12.553C23,18.628 18.075,23.553 12,23.553C6.677,23.553 2.239,19.773 1.22,14.752C1.11,14.21 1.46,13.683 2.001,13.573C2.542,13.463 3.07,13.813 3.18,14.354C4.014,18.461 7.647,21.553 12,21.553C16.971,21.553 21,17.523 21,12.553C21,7.582 16.971,3.553 12,3.553Z" style="fill:white;"/>
        <circle cx="12" cy="12.553" r="6" style="fill:none;stroke:white;stroke-width:2px;"/>
        <circle cx="12" cy="12.553" r="1" style="fill:none;stroke:white;stroke-width:2px;"/>
    </g>
</svg>
