<?xml version="1.0" encoding="UTF-8" standalone="no"?>
<!DOCTYPE svg PUBLIC "-//W3C//DTD SVG 1.1//EN" "http://www.w3.org/Graphics/SVG/1.1/DTD/svg11.dtd">
<svg width="100%" height="100%" viewBox="0 0 24 25" version="1.1" xmlns="http://www.w3.org/2000/svg" xmlns:xlink="http://www.w3.org/1999/xlink" xml:space="preserve" xmlns:serif="http://www.serif.com/" style="fill-rule:evenodd;clip-rule:evenodd;stroke-linecap:round;stroke-linejoin:round;">
    <rect id="Artboard1" x="0" y="0" width="24" height="25" style="fill:none;"/>
    <g id="Artboard11" serif:id="Artboard1">
        <path d="M3,12.553L3,16.553C3,16.904 3.093,17.248 3.268,17.552C3.444,17.855 3.696,18.107 4,18.283L11,22.283C11.304,22.458 11.649,22.551 12,22.551C12.351,22.551 12.696,22.458 13,22.283L20,18.283C20.304,18.107 20.556,17.855 20.732,17.552C20.907,17.248 21,16.904 21,16.553L21,8.553C21,8.202 20.907,7.858 20.732,7.554C20.556,7.25 20.304,6.998 20,6.823L13,2.823C12.696,2.647 12.351,2.555 12,2.555C11.649,2.555 11.304,2.647 11,2.823L4,6.823C3.696,6.998 3.444,7.25 3.268,7.554C3.093,7.858 3,8.202 3,8.553L3,9.553M15,12.553C15,14.21 13.657,15.553 12,15.553C10.343,15.553 9,14.21 9,12.553C9,10.896 10.343,9.553 12,9.553C13.657,9.553 15,10.896 15,12.553Z" style="fill:none;fill-rule:nonzero;stroke:white;stroke-width:2px;"/>
    </g>
</svg>
