<?xml version="1.0" encoding="UTF-8" standalone="no"?>
<!DOCTYPE svg PUBLIC "-//W3C//DTD SVG 1.1//EN" "http://www.w3.org/Graphics/SVG/1.1/DTD/svg11.dtd">
<svg width="100%" height="100%" viewBox="0 0 24 25" version="1.1" xmlns="http://www.w3.org/2000/svg" xmlns:xlink="http://www.w3.org/1999/xlink" xml:space="preserve" xmlns:serif="http://www.serif.com/" style="fill-rule:evenodd;clip-rule:evenodd;stroke-linecap:round;stroke-linejoin:round;">
    <rect id="Artboard1" x="0" y="0" width="24" height="25" style="fill:none;"/>
    <g id="Artboard11" serif:id="Artboard1">
        <path d="M12,11.553C14.209,11.553 16,9.762 16,7.553C16,5.344 14.209,3.553 12,3.553C9.791,3.553 8,5.344 8,7.553C8,9.762 9.791,11.553 12,11.553Z" style="fill:none;fill-rule:nonzero;stroke:white;stroke-width:2px;"/>
        <path d="M16.5,21.695C17.888,21.445 18.988,21.064 19.5,20.553C19.572,19.906 19.5,18.886 19.5,18.886C19.5,18.002 19.079,17.154 18.328,16.529C15.96,14.555 8.041,14.555 5.672,16.529C4.921,17.154 4.5,18.002 4.5,18.886C4.5,18.886 4.428,19.906 4.5,20.553C5.012,21.064 6.112,21.445 7.5,21.695" style="fill:none;fill-rule:nonzero;stroke:white;stroke-width:2px;"/>
    </g>
</svg>
