<?xml version="1.0" encoding="UTF-8" standalone="no"?>
<!DOCTYPE svg PUBLIC "-//W3C//DTD SVG 1.1//EN" "http://www.w3.org/Graphics/SVG/1.1/DTD/svg11.dtd">
<svg width="100%" height="100%" viewBox="0 0 256 235" version="1.1" xmlns="http://www.w3.org/2000/svg" xmlns:xlink="http://www.w3.org/1999/xlink" xml:space="preserve" xmlns:serif="http://www.serif.com/" style="fill-rule:evenodd;clip-rule:evenodd;stroke-miterlimit:10;">
    <rect id="Artboard1" x="0" y="0" width="256" height="235" style="fill:none;"/>
    <clipPath id="_clip1">
        <rect id="Artboard11" serif:id="Artboard1" x="0" y="0" width="256" height="235"/>
    </clipPath>
    <g clip-path="url(#_clip1)">
        <path d="M-308.435,5.306C-190.954,-35.805 -235.968,229.774 -155.196,278.665C-57.179,337.992 -28.458,40.788 20.677,110.931C84.585,202.134 88.009,192.521 199.467,136.799C310.925,81.077 391,212.444 391,212.444M-308.625,17.323C-187.784,-18.412 -228.107,222.627 -148.983,272.909C-49.571,336.094 -20.85,42.749 28.793,112.385C92.447,202.008 91.686,202.514 202.7,145.717C314.159,88.541 390.366,214.974 390.366,214.974M-308.879,29.277C-184.741,-1.082 -220.372,215.543 -142.833,267.154C-41.962,334.26 -13.179,44.71 36.845,113.84C100.245,201.945 95.363,212.57 205.934,154.635C317.392,96.067 389.669,217.504 389.669,217.504M-309.069,41.294C-181.634,16.375 -212.637,208.586 -136.62,261.398C-34.354,332.426 -5.38,46.607 44.96,115.231C108.297,201.628 99.104,222.5 209.231,163.553C320.689,103.531 389.098,220.034 389.098,220.034M-309.323,53.248C-178.527,33.705 -204.965,201.692 -130.47,255.642C-26.81,330.718 2.355,48.505 53.075,116.686C116.159,201.502 102.844,232.557 212.464,172.471C323.922,110.994 388.464,222.627 388.464,222.627M-309.513,65.265C-175.421,51.098 -197.294,194.861 -124.32,249.887C-19.202,329.074 10.026,50.465 61.127,118.141C124.02,201.376 106.522,242.55 215.698,181.389C327.156,118.52 387.767,225.157 387.767,225.157M-309.703,77.219C-172.314,68.428 -189.622,188.03 -118.107,244.068C-11.72,327.492 17.697,52.426 69.242,119.596C131.945,201.249 110.262,252.543 218.994,190.37C330.453,126.047 387.196,227.75 387.196,227.75M-309.957,89.236C-169.271,85.821 -182.014,181.326 -111.957,238.376C-4.239,325.974 25.369,54.387 77.294,121.05C139.744,201.122 113.94,262.6 222.164,199.288C333.623,133.51 386.499,230.28 386.499,230.28M-310.147,101.19C-166.164,103.214 -174.406,174.622 -105.743,232.557C3.242,324.52 33.041,56.347 85.409,122.442C147.605,200.996 117.807,272.783 225.461,208.143C337.046,141.163 385.928,232.747 385.928,232.747M-310.401,113.207C-163.058,120.608 -166.925,167.98 -99.594,226.801C10.66,323.128 40.712,58.308 93.525,123.896C155.467,200.869 121.548,282.776 228.695,217.124C340.28,148.753 385.231,235.34 385.231,235.34M-310.591,125.161C-159.951,137.938 -159.38,161.339 -93.38,221.046C18.015,321.8 48.383,60.332 101.576,125.351C163.329,200.743 125.225,292.769 231.928,226.042C343.513,156.216 384.597,237.87 384.597,237.87M-310.844,137.179C-156.908,155.331 -151.962,154.825 -87.231,215.353C25.242,320.598 55.992,62.293 109.628,126.806C171.064,200.68 128.902,302.826 235.162,234.96C346.747,163.743 383.963,240.4 383.963,240.4M-311.035,149.132C-153.801,172.661 -144.481,148.247 -81.017,209.535C32.533,319.333 63.663,64.253 117.744,128.197C178.989,200.553 132.643,312.819 238.459,243.878C350.044,171.206 383.329,242.93 383.329,242.93M-311.225,161.15C-150.631,190.117 -137,141.732 -74.804,203.779C39.761,318.132 71.334,66.214 125.922,129.652C186.85,200.427 136.447,322.749 241.755,252.796C353.277,178.669 382.758,245.459 382.758,245.459M-311.478,173.104C-147.588,207.447 -129.645,135.218 -68.654,198.023C46.862,316.993 78.943,68.238 133.974,131.107C194.585,200.364 139.997,332.552 244.989,261.714C356.384,185.943 382.124,247.989 382.124,247.989M-311.669,185.121C-144.481,224.841 -122.291,128.767 -62.504,192.268C53.899,315.981 86.551,70.262 142.026,132.561C202.384,200.3 143.675,342.609 248.159,270.632C359.554,193.406 381.364,250.583 381.364,250.583M-311.922,197.075C-141.438,242.171 -115,122.252 -56.354,186.512C60.81,314.906 94.095,72.223 150.078,133.953C210.118,200.174 147.288,352.539 251.392,279.55C362.787,200.933 380.729,253.113 380.729,253.113M-312.112,209.092C-138.268,259.564 -107.645,115.801 -50.141,180.757C67.784,313.957 101.767,74.247 158.193,135.408C217.917,200.111 151.029,362.595 254.689,288.468C366.084,208.396 380.159,255.642 380.159,255.642M-312.303,221.109C-135.161,277.02 -100.291,109.413 -43.928,175.064C74.631,313.072 109.375,76.334 166.308,136.926C225.715,200.174 154.769,372.652 257.922,297.449C369.317,215.923 379.525,258.236 379.525,258.236M-312.556,233.063C-132.118,294.35 -93.063,102.898 -37.778,169.245C81.352,312.123 116.919,78.295 174.36,138.317C233.45,200.047 158.447,382.581 261.156,306.367C372.487,223.449 378.827,260.766 378.827,260.766M-312.746,245.08C-129.011,311.68 -85.836,96.51 -31.565,163.49C88.072,311.238 124.464,80.445 182.539,139.772C241.248,200.111 162.251,392.638 264.516,315.285C375.847,230.912 378.32,263.295 378.32,263.295M-313,257.034C-125.905,329.074 -78.671,90.059 -25.415,157.734C94.666,310.415 132.136,82.406 190.591,141.163C249.046,199.921 165.928,402.631 267.686,324.203C379.018,238.439 377.623,265.825 377.623,265.825" style="fill:none;fill-rule:nonzero;stroke:white;stroke-opacity:0.1;stroke-width:0.75px;"/>
    </g>
</svg>
